<?xml version="1.0" standalone="no"?>
<!DOCTYPE svg PUBLIC "-//W3C//DTD SVG 20010904//EN"
 "http://www.w3.org/TR/2001/REC-SVG-20010904/DTD/svg10.dtd">
<svg version="1.0" xmlns="http://www.w3.org/2000/svg"
 width="466.000000pt" height="442.000000pt" viewBox="0 0 466.000000 442.000000"
 preserveAspectRatio="xMidYMid meet">

<g transform="translate(0.000000,442.000000) scale(0.100000,-0.100000)"
fill="#000000" stroke="none">
<path d="M0 2210 l0 -2210 2330 0 2330 0 0 2210 0 2210 -2330 0 -2330 0 0
-2210z m940 1964 l21 -21 -25 -154 c-14 -85 -28 -164 -30 -176 -4 -28 -10 -32
146 93 72 57 136 104 145 104 28 0 51 -20 85 -72 50 -76 74 -144 58 -163 -7
-8 -84 -43 -171 -77 -87 -34 -159 -65 -159 -68 0 -4 72 -35 160 -70 161 -63
186 -80 174 -117 -28 -88 -105 -193 -142 -193 -11 0 -60 32 -108 71 -49 39
-113 90 -141 113 -49 38 -67 66 -43 66 15 0 40 56 40 92 0 131 -188 172 -244
53 -21 -44 -20 -73 5 -119 25 -47 36 -33 -141 -175 -72 -58 -134 -101 -147
-101 -40 0 -143 150 -143 209 0 33 20 44 184 105 86 32 156 61 156 65 0 4 -71
34 -157 66 -86 33 -162 66 -170 73 -19 19 -16 47 12 105 33 70 91 137 118 137
13 0 78 -46 157 -109 74 -60 136 -108 138 -107 1 2 -10 81 -24 176 -19 122
-24 177 -17 188 15 25 49 31 150 29 79 -2 96 -5 113 -23z m-59 -481 c55 -33
67 -124 23 -174 -12 -13 -14 -160 -16 -900 l-3 -884 -58 -3 c-35 -2 -64 2 -73
9 -12 10 -14 145 -14 893 -1 759 -3 884 -15 900 -8 11 -15 40 -15 64 0 37 6
50 34 78 39 39 89 45 137 17z m1336 -39 c150 -34 295 -134 381 -264 37 -55 91
-185 107 -257 l7 -33 -80 0 -79 0 -28 78 c-75 213 -224 333 -435 349 -174 13
-341 -62 -443 -198 -75 -101 -97 -244 -97 -643 0 -420 17 -517 111 -642 43
-59 148 -132 224 -158 67 -23 196 -31 270 -17 177 33 329 175 382 358 l18 63
78 0 c42 0 77 -3 77 -8 0 -4 -9 -38 -20 -75 -30 -107 -86 -210 -154 -283 -74
-81 -150 -132 -253 -170 -73 -27 -88 -29 -228 -29 -120 0 -161 4 -205 19 -102
35 -191 88 -272 164 -106 101 -150 188 -173 350 -23 156 -17 829 8 936 28 119
67 188 160 280 134 135 276 193 474 195 61 1 129 -5 170 -15z m2004 -9 c0 -8
0 -37 0 -65 0 -27 0 -54 0 -60 -1 -6 -103 -10 -286 -10 l-285 0 0 -890 0 -890
-80 0 -80 0 0 890 0 890 -282 2 -283 3 -3 59 c-2 32 -1 65 2 72 4 12 115 14
651 14 566 0 645 -2 646 -15z m-3204 -2156 c41 -15 73 -48 94 -97 11 -24 19
-46 19 -48 0 -2 -13 -4 -29 -4 -23 0 -31 6 -39 30 -15 43 -57 77 -103 85 -49
8 -119 -23 -140 -62 -20 -37 -20 -269 0 -306 22 -41 60 -61 116 -61 62 0 98
22 122 75 14 31 23 39 46 39 32 0 32 3 8 -52 -21 -50 -69 -95 -109 -104 -15
-3 -36 -7 -46 -9 -37 -8 -113 16 -149 46 -47 39 -67 104 -67 219 0 140 27 204
105 244 35 18 130 21 172 5z m213 -104 l0 -115 135 0 135 0 0 115 0 115 25 0
25 0 0 -260 0 -260 -25 0 -25 0 0 120 0 120 -135 0 -135 0 0 -120 0 -120 -30
0 -30 0 0 260 0 260 30 0 30 0 0 -115z m587 78 c19 -47 183 -475 183 -479 0
-2 -13 -4 -29 -4 -26 0 -30 6 -50 60 l-22 60 -122 0 -122 0 -20 -57 c-17 -50
-24 -58 -47 -61 -16 -2 -28 0 -28 4 0 3 43 121 97 260 89 234 98 254 120 254
18 0 28 -9 40 -37z m282 -45 c21 -46 62 -132 91 -192 l52 -110 18 41 c30 67
46 101 104 226 49 105 58 117 80 117 l26 0 0 -260 0 -260 -25 0 -25 0 0 198
-1 197 -47 -100 c-27 -55 -61 -128 -77 -162 -25 -54 -32 -63 -55 -63 -24 0
-31 9 -63 78 -20 42 -55 115 -77 162 l-40 85 0 -197 0 -198 -25 0 -25 0 0 260
0 260 25 0 c21 0 30 -12 64 -82z m711 76 c43 -9 96 -63 104 -108 8 -40 -10
-91 -41 -119 -20 -18 -20 -18 14 -52 34 -34 35 -37 31 -100 -7 -112 -47 -135
-237 -135 l-131 0 0 260 0 260 114 0 c62 0 128 -3 146 -6z m510 -19 l0 -25
-145 0 -145 0 0 -90 0 -90 125 0 125 0 0 -25 0 -25 -125 0 -125 0 0 -95 0 -95
145 0 145 0 0 -25 0 -25 -170 0 -170 0 0 260 0 260 170 0 170 0 0 -25z m347
-1 c33 -25 62 -78 63 -117 0 -46 -36 -106 -78 -125 -20 -9 -39 -17 -40 -18 -2
-2 24 -52 57 -112 34 -60 61 -112 61 -115 0 -4 -13 -7 -29 -7 -28 0 -35 9 -93
115 l-63 115 -67 0 -68 0 0 -115 0 -115 -30 0 -30 0 0 261 0 260 144 -3 c128
-3 148 -5 173 -24z m533 -704 c0 -7 -663 -10 -1970 -10 -1307 0 -1970 3 -1970
10 0 7 663 10 1970 10 1307 0 1970 -3 1970 -10z m-3717 -200 c34 -38 35 -60 2
-60 -14 0 -25 5 -25 10 0 17 -39 50 -60 50 -42 0 -60 -34 -60 -112 0 -79 4
-89 37 -107 28 -14 73 2 80 29 6 23 53 28 53 6 0 -27 -49 -74 -85 -80 -40 -8
-100 15 -115 44 -15 28 -22 120 -13 170 17 90 124 119 186 50z m1575 20 c18
-11 37 -32 42 -46 13 -34 13 -34 -13 -34 -16 0 -28 9 -35 25 -15 32 -55 42
-87 21 -25 -16 -26 -20 -23 -104 3 -84 4 -87 31 -100 40 -20 81 2 85 46 3 31
2 32 -32 32 -29 0 -36 4 -36 20 0 18 7 20 60 20 l60 0 0 -40 c0 -56 -24 -99
-66 -116 -45 -19 -95 -10 -126 23 -21 22 -23 34 -23 118 0 79 3 96 20 115 39
44 92 51 143 20z m1092 0 c0 -18 -7 -20 -75 -20 l-75 0 0 -45 0 -45 65 0 c58
0 65 -2 65 -20 0 -18 -7 -20 -65 -20 l-65 0 0 -45 0 -45 75 0 c68 0 75 -2 75
-20 0 -19 -7 -20 -95 -20 l-95 0 0 150 0 150 95 0 c88 0 95 -1 95 -20z m1010
-130 l0 -150 -28 2 c-15 1 -33 -2 -40 -6 -7 -4 -26 -5 -42 -1 -39 9 -60 49
-60 115 0 41 5 56 26 77 21 21 32 25 65 20 l39 -5 0 49 c0 42 3 49 20 49 19 0
20 -7 20 -150z m-2530 90 c0 -23 4 -30 20 -30 13 0 20 -7 20 -20 0 -13 -7 -20
-20 -20 -18 0 -20 -7 -20 -66 0 -57 3 -67 20 -71 34 -9 24 -35 -12 -31 -43 4
-59 36 -56 111 2 40 -1 57 -9 57 -7 0 -13 9 -13 20 0 11 6 20 13 20 9 0 12 10
9 30 -4 27 -1 30 22 30 22 0 26 -4 26 -30z m-953 -45 c31 -22 47 -87 33 -129
-15 -47 -44 -70 -87 -70 -52 0 -83 39 -83 105 0 28 5 59 11 70 20 38 88 50
126 24z m224 -6 c16 -16 19 -33 19 -104 0 -78 -2 -85 -20 -85 -18 0 -20 7 -20
74 0 80 -11 100 -52 94 -22 -3 -23 -8 -26 -85 -3 -81 -3 -83 -27 -83 -25 0
-25 0 -25 103 l0 104 66 1 c52 0 69 -3 85 -19z m213 0 c24 -19 26 -26 26 -105
0 -77 -2 -84 -20 -84 -18 0 -20 7 -20 66 0 78 -12 104 -46 104 -31 0 -44 -31
-44 -111 0 -52 -2 -59 -20 -59 -19 0 -20 7 -20 104 l0 103 59 1 c46 1 66 -4
85 -19z m211 -4 c17 -16 25 -35 25 -60 l0 -35 -65 0 c-71 0 -82 -11 -45 -45
18 -17 25 -17 55 -6 61 22 78 -10 19 -35 -77 -32 -134 11 -134 101 0 41 5 57
25 79 32 35 86 36 120 1z m203 9 c12 -8 22 -19 22 -23 0 -14 -33 -22 -44 -11
-14 14 -49 13 -64 -2 -7 -7 -12 -33 -12 -60 0 -58 23 -77 71 -57 23 9 33 9 42
0 19 -19 -17 -46 -64 -46 -34 0 -46 6 -71 34 -27 30 -30 39 -25 84 3 39 11 56
31 74 32 27 81 30 114 7z m755 5 c29 -16 3 -40 -35 -32 -44 9 -58 -15 -58 -99
0 -61 -2 -68 -20 -68 -19 0 -20 7 -20 104 l0 103 57 1 c32 0 66 -4 76 -9z
m152 -14 c20 -19 25 -34 25 -72 0 -68 -8 -87 -40 -106 -39 -23 -63 -21 -99 9
-28 23 -31 31 -31 85 0 74 27 109 85 109 25 0 44 -8 60 -25z m80 13 c2 -7 12
-40 21 -72 l17 -60 21 70 c17 54 26 70 43 72 15 2 22 -4 26 -25 9 -47 45 -121
46 -96 1 12 5 32 10 45 5 13 12 35 15 51 5 18 13 27 26 27 27 0 25 -25 -8
-125 -22 -64 -31 -81 -48 -83 -19 -3 -25 7 -45 65 l-22 68 -22 -65 c-16 -49
-27 -66 -42 -68 -18 -3 -25 9 -52 90 -17 51 -31 99 -31 106 0 16 39 16 45 0z
m716 -24 l22 -37 19 37 c14 27 25 36 43 36 14 0 25 -2 25 -4 0 -3 -14 -27 -31
-55 l-31 -49 31 -46 c38 -54 39 -65 6 -58 -16 3 -32 17 -42 35 l-15 31 -27
-31 c-25 -30 -71 -53 -71 -36 0 4 16 30 34 58 l34 49 -29 43 c-34 49 -36 63
-10 63 11 0 29 -15 42 -36z m285 11 c19 -19 24 -35 24 -75 0 -28 -7 -64 -15
-80 -17 -33 -63 -47 -94 -30 -20 10 -21 8 -21 -40 0 -43 -3 -50 -20 -50 -19 0
-20 7 -20 149 l0 148 61 1 c52 1 65 -3 85 -23z m195 7 c19 -16 23 -31 27 -104
l4 -85 -55 -6 c-30 -4 -64 -4 -74 0 -87 30 -62 123 33 123 41 0 45 2 42 23 -3
25 -44 35 -76 18 -11 -6 -23 -6 -33 0 -12 8 -10 13 10 29 30 26 91 26 122 2z
m109 6 c0 -9 3 -9 12 0 22 22 90 9 110 -22 4 -6 8 -48 8 -93 0 -76 -2 -83 -20
-83 -18 0 -20 7 -20 73 0 78 -9 97 -47 97 -31 0 -43 -28 -43 -104 0 -59 -2
-66 -20 -66 -19 0 -20 7 -20 105 0 98 1 105 20 105 11 0 20 -5 20 -12z m-2060
-173 c0 -20 -5 -25 -25 -25 -20 0 -25 5 -25 25 0 20 5 25 25 25 20 0 25 -5 25
-25z m1050 0 c0 -20 -5 -25 -25 -25 -20 0 -25 5 -25 25 0 20 5 25 25 25 20 0
25 -5 25 -25z"/>
<path d="M1730 1293 c-24 -65 -45 -124 -48 -130 -3 -10 20 -13 97 -13 111 0
106 -4 76 65 -7 17 -26 67 -41 113 -16 45 -31 82 -35 82 -3 0 -25 -53 -49
-117z"/>
<path d="M2600 1360 l0 -90 93 0 c53 0 102 6 117 13 59 30 66 117 11 150 -22
13 -52 17 -125 17 l-96 0 0 -90z"/>
<path d="M2600 1125 l0 -95 104 0 c88 0 107 3 129 20 51 40 43 126 -14 155
-19 10 -60 15 -124 15 l-95 0 0 -95z"/>
<path d="M3410 1354 l0 -96 106 4 c102 3 107 5 130 31 24 28 31 76 18 112 -12
32 -59 45 -159 45 l-95 0 0 -96z"/>
<path d="M4040 454 c-14 -36 -12 -66 6 -92 18 -26 37 -28 58 -6 18 18 21 76 6
105 -16 29 -58 25 -70 -7z"/>
<path d="M596 464 c-33 -33 -12 -124 29 -124 38 0 60 74 35 121 -13 23 -43 25
-64 3z"/>
<path d="M1230 461 c-15 -30 -14 -31 35 -31 30 0 45 4 45 13 0 37 -62 51 -80
18z"/>
<path d="M2342 468 c-18 -18 -15 -94 4 -112 35 -36 74 -6 74 58 0 46 -13 66
-45 66 -12 0 -26 -5 -33 -12z"/>
<path d="M3420 461 c-16 -31 -12 -86 8 -104 25 -23 38 -21 56 5 32 45 14 118
-29 118 -14 0 -29 -8 -35 -19z"/>
<path d="M3615 386 c-16 -12 -17 -16 -6 -30 25 -30 81 -17 81 20 0 20 -5 24
-28 24 -16 0 -37 -6 -47 -14z"/>
</g>
</svg>
