<?xml version="1.0" standalone="no"?>
<!DOCTYPE svg PUBLIC "-//W3C//DTD SVG 20010904//EN"
 "http://www.w3.org/TR/2001/REC-SVG-20010904/DTD/svg10.dtd">
<svg version="1.0" xmlns="http://www.w3.org/2000/svg"
 width="1024.000000pt" height="1024.000000pt" viewBox="0 0 1024.000000 1024.000000"
 preserveAspectRatio="xMidYMid meet">

<g transform="translate(0.000000,1024.000000) scale(0.100000,-0.100000)"
fill="#000000" stroke="none">
<path d="M0 5120 l0 -5120 5120 0 5120 0 0 5120 0 5120 -5120 0 -5120 0 0
-5120z m2952 2993 c56 -25 131 -93 166 -148 14 -22 80 -179 146 -350 l121
-310 2319 -2 c2576 -3 2363 3 2461 -71 36 -27 60 -56 84 -105 62 -120 73 -72
-257 -1067 -160 -481 -323 -974 -362 -1095 -78 -237 -109 -307 -175 -400 -49
-69 -179 -197 -245 -242 -104 -70 -252 -131 -374 -152 -40 -7 -461 -11 -1246
-11 -761 0 -1206 -4 -1241 -10 -206 -39 -334 -231 -274 -411 24 -71 92 -139
168 -168 91 -33 110 -29 227 45 108 70 182 104 278 129 82 22 2091 22 2193 1
85 -18 178 -58 259 -110 389 -252 457 -808 141 -1157 -315 -349 -891 -311
-1143 75 -49 76 -86 194 -94 299 -6 73 -4 85 14 107 20 25 23 25 184 28 l163
4 17 -73 c20 -85 53 -138 110 -179 117 -85 281 -77 391 21 158 139 123 397
-67 497 l-51 27 -627 3 -627 3 28 -78 c113 -310 19 -645 -241 -863 -134 -113
-297 -171 -483 -171 -228 -1 -424 84 -578 251 -130 141 -199 319 -199 521 l-1
116 -56 18 c-235 74 -416 258 -497 505 -25 76 -28 100 -28 230 -1 164 11 226
70 349 46 99 108 184 188 259 36 34 66 69 66 78 0 16 -222 598 -700 1834 -105
272 -257 666 -337 875 -79 209 -152 386 -161 393 -12 9 -118 12 -451 12 -436
0 -436 0 -486 24 -93 43 -147 127 -148 231 -1 111 69 209 175 246 49 18 89 19
593 16 530 -2 541 -2 587 -24z"/>
<path d="M3580 6733 c15 -38 113 -293 219 -568 105 -275 278 -725 384 -1000
l193 -500 1199 -3 c1339 -2 1251 -7 1364 69 69 46 130 124 161 205 15 43 578
1756 604 1842 l7 22 -2079 0 -2080 0 28 -67z m2830 -218 c0 -8 -464 -547 -548
-636 -40 -42 -72 -80 -72 -83 0 -4 42 -59 93 -124 51 -64 181 -232 289 -372
107 -140 212 -275 232 -300 20 -25 36 -48 36 -52 0 -5 -118 -8 -262 -8 l-263
1 -86 117 c-48 64 -146 198 -219 296 l-133 180 -78 -82 -79 -81 0 -216 0 -215
-215 0 -215 0 0 785 0 785 215 0 215 0 2 -334 3 -333 64 71 c35 39 163 190
286 336 l222 265 256 3 c141 1 257 0 257 -3z"/>
<path d="M4828 3287 c-107 -41 -195 -122 -224 -210 -74 -219 84 -451 317 -465
67 -4 84 -1 132 21 74 34 137 94 178 169 32 59 34 69 34 158 0 76 -4 104 -22
142 -53 116 -166 189 -303 195 -47 2 -89 -2 -112 -10z"/>
</g>
</svg>
